<?xml version="1.0" standalone="no"?>
<!DOCTYPE svg PUBLIC "-//W3C//DTD SVG 20010904//EN"
 "http://www.w3.org/TR/2001/REC-SVG-20010904/DTD/svg10.dtd">
<svg version="1.0" xmlns="http://www.w3.org/2000/svg"
 width="480.000000pt" height="480.000000pt" viewBox="0 0 480.000000 480.000000"
 preserveAspectRatio="xMidYMid meet">
<metadata>
Created by potrace 1.14, written by Peter Selinger 2001-2017
</metadata>
<g transform="translate(0.000000,480.000000) scale(0.100000,-0.100000)"
fill="#000000" stroke="none">
<path d="M2295 4793 c-684 -37 -1293 -338 -1728 -853 -244 -288 -419 -641
-502 -1010 -77 -339 -77 -721 0 -1060 202 -896 909 -1603 1805 -1805 339 -77
721 -77 1060 0 896 202 1603 909 1805 1805 77 339 77 721 0 1060 -221 978
-1040 1722 -2030 1844 -130 16 -315 25 -410 19z m425 -218 c362 -55 700 -195
995 -414 128 -95 351 -318 446 -446 221 -298 358 -631 416 -1005 24 -158 24
-462 0 -620 -58 -374 -195 -707 -416 -1005 -95 -128 -318 -351 -446 -446 -298
-221 -631 -358 -1005 -416 -158 -24 -462 -24 -620 0 -374 58 -707 195 -1005
416 -128 95 -351 318 -446 446 -221 298 -358 631 -416 1005 -24 158 -24 462 0
620 58 374 195 707 416 1005 95 128 318 351 446 446 338 250 697 385 1150 433
80 8 383 -4 485 -19z"/>
<path d="M2765 3393 c-254 -54 -465 -224 -581 -468 -73 -154 -89 -239 -89
-460 0 -149 4 -206 18 -264 46 -191 126 -330 261 -458 68 -65 106 -91 188
-131 157 -77 201 -87 418 -87 163 0 194 3 263 23 162 47 280 115 385 225 74
78 81 110 31 151 -49 42 -72 35 -159 -48 -159 -152 -337 -217 -555 -203 -336
23 -574 227 -657 565 -30 123 -30 331 0 454 67 272 246 472 481 537 181 50
418 32 634 -49 l57 -21 0 -123 c0 -115 1 -124 23 -144 31 -29 99 -30 127 -2
18 18 20 33 20 180 0 159 0 161 -25 184 -56 52 -263 123 -420 146 -104 14
-338 11 -420 -7z"/>
<path d="M1255 3360 c-27 -30 -25 -88 4 -111 19 -16 40 -19 123 -19 l99 0 -3
-912 c-4 -912 -4 -913 -26 -986 -38 -124 -76 -170 -181 -217 -81 -37 -85 -40
-97 -65 -13 -25 -3 -78 18 -92 7 -4 34 -8 59 -8 107 0 285 130 341 250 61 130
61 118 65 1118 l4 912 98 0 c89 0 99 2 119 23 28 30 29 80 2 107 -19 19 -33
20 -313 20 -284 0 -295 -1 -312 -20z"/>
</g>
</svg>
