<svg xmlns="http://www.w3.org/2000/svg" viewBox="0 0 118.74 118.73"><defs><style>.cls-1{fill:#de564e;}.cls-2{fill:#ededed;}.cls-3{fill:#7b4ca6;}.cls-4{fill:#fff;}.cls-5{fill:#d9d9d9;}.cls-6{fill:#6a6576;}.cls-7{fill:#393a58;}.cls-8{fill:#54bb6c;}</style></defs><g id="Layer_2" data-name="Layer 2"><g id="Layer_1-2" data-name="Layer 1"><path class="cls-1" d="M59.37,0a59.37,59.37,0,0,0-49,93h97.92A59.37,59.37,0,0,0,59.37,0Z"/><path class="cls-2" d="M108.55,30.94V92.63a59.38,59.38,0,0,1-98.36,0V30.94a5.51,5.51,0,0,1,5.52-5.49h87.35A5.49,5.49,0,0,1,108.55,30.94Z"/><path class="cls-3" d="M108.54,37.4V30.93a5.48,5.48,0,0,0-5.48-5.48H15.71a5.5,5.5,0,0,0-5.51,5.48V37.4Z"/><path class="cls-4" d="M102.2,31.42a2.59,2.59,0,1,1-2.59-2.58A2.59,2.59,0,0,1,102.2,31.42Z"/><path class="cls-4" d="M94.11,31.42a2.59,2.59,0,1,1-2.58-2.58A2.59,2.59,0,0,1,94.11,31.42Z"/><path class="cls-4" d="M86,31.42a2.59,2.59,0,1,1-2.59-2.58A2.6,2.6,0,0,1,86,31.42Z"/><path class="cls-2" d="M70.25,34.09H21a2.59,2.59,0,1,1,0-5.18H70.25a2.59,2.59,0,1,1,0,5.18Z"/><path class="cls-5" d="M97.33,43.52H27.49a1.09,1.09,0,0,0-1.1,1.11v2.85a1.08,1.08,0,0,0,1.1,1.1H97.33a1.1,1.1,0,0,0,1.1-1.1V44.63A1.1,1.1,0,0,0,97.33,43.52Z"/><path class="cls-6" d="M106,46.06l-.91,1.27s-.05,0-.08,0l-.9-1.27s0-.08,0-.08h.65a2,2,0,1,0-2,2.07v.5a2.5,2.5,0,0,1,0-5A2.52,2.52,0,0,1,105.35,46H106S106.05,46,106,46.06Z"/><path class="cls-6" d="M20.71,47.57V47H19V45.4h1.7v-.56a.09.09,0,0,1,.15-.08l2,1.36a.1.1,0,0,1,0,.16l-2,1.37A.1.1,0,0,1,20.71,47.57Z"/><path class="cls-6" d="M14.86,47.57V47h1.7V45.4h-1.7v-.56a.09.09,0,0,0-.15-.08l-2,1.36a.09.09,0,0,0,0,.16l2,1.37A.1.1,0,0,0,14.86,47.57Z"/><path class="cls-6" d="M35.82,44.23,34.9,47,34,44.23h-.81L32.25,47l-.92-2.81h-.81l1.28,3.71h.9l.87-2.53.88,2.53h.89l1.28-3.71Z"/><path class="cls-6" d="M42.17,44.23,41.25,47l-.92-2.81h-.8L38.6,47l-.92-2.81h-.81l1.29,3.71h.89l.87-2.53.89,2.53h.88L43,44.23Z"/><path class="cls-6" d="M48.52,44.23,47.6,47l-.91-2.81h-.81L45,47,44,44.23h-.8l1.28,3.71h.89l.88-2.53.88,2.53h.89l1.28-3.71Z"/><path class="cls-6" d="M50.6,47.11a.53.53,0,0,0-.74,0,.49.49,0,0,0-.14.37.52.52,0,0,0,.14.37.53.53,0,0,0,.74,0,.53.53,0,0,0,.15-.37A.5.5,0,0,0,50.6,47.11Z"/><path class="cls-7" d="M85.4,87a6.77,6.77,0,0,1-9.57,9.57C73.18,93.91,59,75.47,61.67,72.82S82.75,84.34,85.4,87Z"/><path class="cls-5" d="M67.22,71.52l-2.8-2.8-6.86,6.85,2.81,2.81a1.9,1.9,0,0,0,2.7,0l4.15-4.16A1.9,1.9,0,0,0,67.22,71.52Z"/><path class="cls-8" d="M63,42.34a22.5,22.5,0,1,0,0,31.84A22.51,22.51,0,0,0,63,42.34ZM60,71.13a18.21,18.21,0,1,1,0-25.76A18.19,18.19,0,0,1,60,71.13Z"/></g></g></svg>