<svg xmlns="http://www.w3.org/2000/svg" viewBox="0 0 112.26 112.26"><defs><style>.cls-1{fill:#d666ba;}.cls-2{fill:#ededed;}.cls-3{fill:#d9d9d9;}.cls-4{fill:#393a58;}.cls-5{fill:#ed7167;}.cls-6{fill:#fff;}</style></defs><g id="Layer_2" data-name="Layer 2"><g id="Layer_1-2" data-name="Layer 1"><circle class="cls-1" cx="56.13" cy="56.13" r="56.13" transform="translate(-2.46 109.69) rotate(-87.43)"/><path class="cls-2" d="M69.78,40,83.45,64,70.55,78,45.44,66.51a4.41,4.41,0,0,1-2.63-4.42c.83-8.33-2.5-19.28-4.3-24.42-.64-1.83-1.08-2.93-1.08-2.93s1.14.34,3,.82c5.29,1.35,16.48,3.71,24.71,2.16A4.41,4.41,0,0,1,69.78,40Z"/><path class="cls-3" d="M40.44,35.56,61.08,54.47l-1.93,2.11L38.51,37.67c-.64-1.83-1.08-2.93-1.08-2.93S38.57,35.08,40.44,35.56Z"/><path class="cls-3" d="M64.09,53.79a4,4,0,1,1-5.62.23A4,4,0,0,1,64.09,53.79Z"/><path class="cls-4" d="M106.7,80.52a55.94,55.94,0,0,1-16.58,20.27L75.2,87.09l-5.14-4.73h0c-1.17-1-1.4-2.75.21-4.46.54-.59,12.86-14.05,13.4-14.62v0a3,3,0,0,1,1.52-.87s0,0,0,0a2.85,2.85,0,0,1,2.52.7l5.15,4.73Z"/><path class="cls-5" d="M92.87,67.81l-5.15-4.72a2.89,2.89,0,0,0-4.07.18C66.08,82.43,66.08,78.73,75.2,87.09Z"/><path class="cls-6" d="M26.69,82.31A2.74,2.74,0,0,1,24,79.57V26.22a2.73,2.73,0,0,1,2.73-2.73H83.8a2.74,2.74,0,1,1,0,5.47H29.43V79.57A2.74,2.74,0,0,1,26.69,82.31Z"/><path class="cls-4" d="M34,20.74V31.52A1.48,1.48,0,0,1,32.52,33H21.71a1.47,1.47,0,0,1-1.46-1.49V20.74a1.47,1.47,0,0,1,1.46-1.47H32.52A1.47,1.47,0,0,1,34,20.74Z"/><path class="cls-4" d="M92,20.74V31.52A1.48,1.48,0,0,1,90.55,33H79.74a1.48,1.48,0,0,1-1.47-1.49V20.74a1.48,1.48,0,0,1,1.47-1.47H90.55A1.48,1.48,0,0,1,92,20.74Z"/><path class="cls-4" d="M34.08,75V85.79a1.48,1.48,0,0,1-1.47,1.49H21.8a1.47,1.47,0,0,1-1.46-1.49V75a1.48,1.48,0,0,1,1.46-1.47H32.61A1.48,1.48,0,0,1,34.08,75Z"/></g></g></svg>