<svg xmlns="http://www.w3.org/2000/svg" viewBox="0 0 112.26 112.26"><defs><style>.cls-1{fill:#54bb6c;}.cls-2{fill:#ededed;}.cls-3{fill:#3bb5c5;}.cls-4{fill:#2fa6ae;}.cls-5{fill:#f8d270;}.cls-10,.cls-6{fill:#282941;}.cls-18,.cls-6{opacity:0.1;}.cls-7{fill:#ed7167;}.cls-8{fill:#de564e;}.cls-9{fill:#393a58;}.cls-11{fill:#e67dc1;}.cls-12{fill:#d666ba;}.cls-13{fill:#f8d0bf;}.cls-14{fill:#e4baab;}.cls-15{fill:#8d61ba;}.cls-16{fill:#7b4ca6;}.cls-17{fill:#d9d9d9;}</style></defs><g id="Layer_2" data-name="Layer 2"><g id="Layer_1-2" data-name="Layer 1"><circle class="cls-1" cx="56.13" cy="56.13" r="56.13" transform="translate(-23.25 56.13) rotate(-45)"/><path class="cls-2" d="M94.18,76.05C87.94,93.52,65,101.33,43,93.47S8.12,65,14.36,47.59c4.73-13.24,19-20.94,35.2-20.49a10.86,10.86,0,0,1,9.17,5.24A25.25,25.25,0,0,0,80.83,44.5a11.34,11.34,0,0,1,10.08,5.68C95.75,58.34,97.23,67.56,94.18,76.05Z"/><path class="cls-3" d="M50.66,38.18a6.24,6.24,0,1,1-6.22-6.24A6.21,6.21,0,0,1,50.66,38.18Z"/><path class="cls-4" d="M49.54,34.63c-5.57-4-12.69,3.06-8.66,8.65a6.22,6.22,0,1,1,8.66-8.65Z"/><path class="cls-5" d="M35.07,49.53a6.24,6.24,0,1,1-6.22-6.25A6.23,6.23,0,0,1,35.07,49.53Z"/><path class="cls-6" d="M33.94,46c-5.61-4-12.65,3.11-8.65,8.66A6.22,6.22,0,1,1,33.94,46Z"/><path class="cls-7" d="M35.07,69.21A6.24,6.24,0,1,1,28.85,63,6.22,6.22,0,0,1,35.07,69.21Z"/><path class="cls-8" d="M33.94,65.66c-5.61-4-12.65,3.1-8.65,8.65a6.22,6.22,0,1,1,8.65-8.65Z"/><path class="cls-9" d="M47.53,83a6.23,6.23,0,1,1-6.22-6.25A6.22,6.22,0,0,1,47.53,83Z"/><path class="cls-10" d="M46.41,79.47c-5.56-4-12.68,3.06-8.65,8.66A6.16,6.16,0,0,1,35.07,83a6.22,6.22,0,0,1,11.34-3.56Z"/><path class="cls-11" d="M66.74,87.1a6.24,6.24,0,1,1-6.22-6.24A6.21,6.21,0,0,1,66.74,87.1Z"/><path class="cls-12" d="M65.62,83.55c-5.57-4-12.69,3.06-8.66,8.65a6.22,6.22,0,1,1,8.66-8.65Z"/><path class="cls-13" d="M84.09,79.54a6.24,6.24,0,1,1-6.23-6.25A6.22,6.22,0,0,1,84.09,79.54Z"/><path class="cls-14" d="M83,76C77.4,72,70.28,79,74.31,84.64A6.22,6.22,0,1,1,83,76Z"/><path class="cls-15" d="M90.32,60.87a6.24,6.24,0,1,1-6.22-6.24A6.21,6.21,0,0,1,90.32,60.87Z"/><path class="cls-16" d="M89.2,57.31c-5.62-4-12.66,3.11-8.66,8.66a6.22,6.22,0,1,1,8.66-8.66Z"/><path class="cls-17" d="M54.3,48a15,15,0,1,0,15,15A15,15,0,0,0,54.3,48Z"/><g class="cls-18"><path class="cls-10" d="M67.18,63A12.91,12.91,0,1,1,54.3,50.06,12.87,12.87,0,0,1,67.18,63Z"/></g><path class="cls-16" d="M64.73,57.38c-.38,8.25-16,8.28-22.32,8a.35.35,0,0,1-.07-.69A16.94,16.94,0,0,0,53.5,55.07a5.94,5.94,0,0,1,7.88-3A5.44,5.44,0,0,1,64.73,57.38Z"/><path class="cls-8" d="M98.75,19.59,78.87,42.91A14.49,14.49,0,0,1,76,45.74L64.6,55.47a.21.21,0,0,1-.1,0h0a.19.19,0,0,1-.19,0l-2.62-2.65L60.86,52a.25.25,0,0,1-.1-.17v0s0-.07.07-.12C73.33,37,71.05,39.43,73.39,37.44l23.39-20c.35.33.68.68,1,1Z"/><g class="cls-18"><path class="cls-10" d="M97.76,18.47l-23.36,20a13,13,0,0,0-2.86,2.83L62.05,52.38v0l-.38.42L60.86,52a.25.25,0,0,1-.1-.17v0s0-.07.07-.12C73.33,37,71.05,39.43,73.39,37.44l23.39-20C97.13,17.79,97.46,18.14,97.76,18.47Z"/></g><path class="cls-5" d="M73.38,37.44l5.48,5.48A14,14,0,0,1,76,45.75L70.55,40.3A14,14,0,0,1,73.38,37.44Z"/><path class="cls-15" d="M64.72,57.38c-.2,4.49-4.92,6.54-10.2,7.43-1.2-3.6-1.89-1-2.05-4,0-.91-.8-1.2-1.25-1.82a16.88,16.88,0,0,0,2.28-3.93,5.94,5.94,0,0,1,7.88-3A5.43,5.43,0,0,1,64.72,57.38Z"/></g></g></svg>