<svg xmlns="http://www.w3.org/2000/svg" viewBox="0 0 112.26 112.26"><defs><style>.cls-1{fill:#7b4ca6;}.cls-2{fill:#f8d270;}.cls-3{fill:#393a58;}.cls-4{fill:#de564e;}.cls-5{fill:#74d288;}.cls-6{fill:#ed7167;}.cls-7{fill:#f8d0bf;}</style></defs><g id="Layer_2" data-name="Layer 2"><g id="Layer_1-2" data-name="Layer 1"><circle class="cls-1" cx="56.13" cy="56.13" r="56.13" transform="translate(-11.09 13.91) rotate(-12.87)"/><path class="cls-2" d="M74.81,18.91l-52.2,68a1.66,1.66,0,0,0,.29,2.32l12.23,9.38a1.65,1.65,0,0,0,2.32-.3l52.2-68a1.64,1.64,0,0,0-.3-2.32L77.12,18.59A1.64,1.64,0,0,0,74.81,18.91Zm.54,3.6a2.11,2.11,0,1,1,.39,2.95A2.1,2.1,0,0,1,75.35,22.51Z"/><rect class="cls-3" x="84.73" y="31.59" width="0.94" height="3.42" transform="translate(6.91 80.62) rotate(-52.5)"/><rect class="cls-3" x="81.05" y="30.6" width="0.94" height="7.8" transform="translate(4.52 78.17) rotate(-52.5)"/><rect class="cls-3" x="80.14" y="35.25" width="0.94" height="5.17" transform="translate(1.52 78.75) rotate(-52.5)"/><rect class="cls-3" x="77.77" y="36.93" width="0.94" height="6.24" transform="matrix(0.61, -0.79, 0.79, 0.61, -1.16, 77.74)"/><rect class="cls-3" x="76.7" y="42.06" width="0.94" height="3.42" transform="translate(-4.53 78.34) rotate(-52.5)"/><rect class="cls-3" x="73.01" y="41.07" width="0.94" height="7.8" transform="translate(-6.93 75.89) rotate(-52.5)"/><rect class="cls-3" x="72.11" y="45.72" width="0.94" height="5.17" transform="translate(-9.93 76.48) rotate(-52.5)"/><rect class="cls-3" x="69.74" y="47.39" width="0.94" height="6.24" transform="translate(-12.61 75.46) rotate(-52.5)"/><rect class="cls-3" x="68.67" y="52.53" width="0.94" height="3.42" transform="translate(-15.98 76.06) rotate(-52.5)"/><rect class="cls-3" x="64.98" y="51.54" width="0.94" height="7.8" transform="translate(-18.38 73.61) rotate(-52.5)"/><rect class="cls-3" x="64.08" y="56.19" width="0.94" height="5.17" transform="translate(-21.38 74.2) rotate(-52.5)"/><rect class="cls-3" x="61.71" y="57.86" width="0.94" height="6.24" transform="translate(-24.06 73.18) rotate(-52.5)"/><rect class="cls-3" x="60.63" y="63" width="0.94" height="3.42" transform="translate(-27.43 73.79) rotate(-52.5)"/><rect class="cls-3" x="56.95" y="62" width="0.94" height="7.8" transform="translate(-29.82 71.33) rotate(-52.5)"/><rect class="cls-3" x="56.04" y="66.66" width="0.94" height="5.17" transform="translate(-32.82 71.92) rotate(-52.5)"/><rect class="cls-3" x="53.67" y="68.33" width="0.94" height="6.24" transform="translate(-35.5 70.9) rotate(-52.5)"/><rect class="cls-3" x="52.6" y="73.46" width="0.94" height="3.42" transform="translate(-38.88 71.51) rotate(-52.5)"/><rect class="cls-3" x="48.91" y="72.47" width="0.94" height="7.8" transform="translate(-41.27 69.05) rotate(-52.5)"/><rect class="cls-3" x="48.01" y="77.12" width="0.94" height="5.17" transform="translate(-44.27 69.64) rotate(-52.5)"/><rect class="cls-3" x="45.64" y="78.8" width="0.94" height="6.24" transform="translate(-46.95 68.62) rotate(-52.5)"/><rect class="cls-3" x="44.57" y="83.93" width="0.94" height="3.42" transform="translate(-50.32 69.23) rotate(-52.5)"/><rect class="cls-3" x="40.88" y="82.94" width="0.94" height="7.8" transform="matrix(0.61, -0.79, 0.79, 0.61, -52.72, 66.78)"/><rect class="cls-3" x="39.98" y="87.59" width="0.94" height="5.17" transform="translate(-55.72 67.37) rotate(-52.5)"/><rect class="cls-3" x="37.61" y="89.26" width="0.94" height="6.24" transform="translate(-58.4 66.35) rotate(-52.5)"/><rect class="cls-4" x="47.99" y="27.66" width="16.28" height="65.75" transform="translate(-25.32 47.08) rotate(-37.78)"/><path class="cls-5" d="M74.6,97.64l-5.77-7.43,12.87-10,5.76,7.43a4.29,4.29,0,0,1-.76,6l-6.08,4.72A4.3,4.3,0,0,1,74.6,97.64Z"/><rect class="cls-6" x="49.24" y="31.31" width="4.37" height="65.75" transform="translate(-28.54 44.96) rotate(-37.78)"/><rect class="cls-6" x="58.65" y="24.01" width="4.37" height="65.75" transform="translate(-22.1 49.2) rotate(-37.78)"/><path class="cls-7" d="M42.42,29.56l0,0L24.29,18.36a.72.72,0,0,0-1.07.82l6.3,20.32,0,0Z"/><path class="cls-3" d="M30.56,22.23l-6.27-3.87a.72.72,0,0,0-1.07.82l2.19,7Z"/><rect class="cls-3" x="68.45" y="84.77" width="16.28" height="4.32" transform="translate(-37.2 65.14) rotate(-37.78)"/></g></g></svg>