<svg xmlns="http://www.w3.org/2000/svg" viewBox="0 0 128 128"><defs><style>.cls-1{fill:#90dfaa;}.cls-2{fill:#2b3b4e;}.cls-3{fill:#f9b54c;}.cls-4{fill:#f1543f;}.cls-5{fill:#324a5e;}</style></defs><g id="Layer_2" data-name="Layer 2"><g id="Technology_Hardwere" data-name="Technology &amp; Hardwere"><circle class="cls-1" cx="64" cy="64" r="64"/><path class="cls-2" d="M104,85.25H97.2v-21c0-17.37-14.89-31.49-33.2-31.49S30.8,46.87,30.8,64.24v21H24v-21C24,43.32,41.94,26.3,64,26.3s40,17,40,37.94Z"/><path class="cls-3" d="M24,84.55A15.54,15.54,0,0,0,39.62,100V69.09A15.54,15.54,0,0,0,24,84.55Z"/><path class="cls-4" d="M46.61,67.1H41.36a1.73,1.73,0,0,0-1.74,1.73v31.45A1.73,1.73,0,0,0,41.36,102h5.25a1.73,1.73,0,0,0,1.74-1.72V68.83A1.73,1.73,0,0,0,46.61,67.1Z"/><path class="cls-5" d="M64,22A45.15,45.15,0,0,0,29.79,37.41a7.54,7.54,0,0,0,.41,10.32h0a7.69,7.69,0,0,0,11.23-.4,29.92,29.92,0,0,1,45.14,0,7.69,7.69,0,0,0,11.23.4h0a7.54,7.54,0,0,0,.41-10.32A45.15,45.15,0,0,0,64,22Z"/><path class="cls-3" d="M104,84.55A15.54,15.54,0,0,0,88.38,69.09V100A15.54,15.54,0,0,0,104,84.55Z"/><path class="cls-4" d="M81.39,102h5.25a1.73,1.73,0,0,0,1.74-1.72V68.83a1.73,1.73,0,0,0-1.74-1.73H81.39a1.73,1.73,0,0,0-1.74,1.73v31.45A1.73,1.73,0,0,0,81.39,102Z"/></g></g></svg>